<svg xmlns="http://www.w3.org/2000/svg" version="1.1" xmlns:xlink="http://www.w3.org/1999/xlink" xmlns:svgjs="http://svgjs.dev/svgjs" width="100%" height="100%" viewBox="0 0 1000 600"><rect width="1000" height="600" x="0" y="0" fill="#4f46e5"/><g><rect width="333.3333333333333" height="333.3333333333333" y="325.10228873288145" fill="#ffffff" transform="matrix(0.41270458398988336,0,0,0.41270458398988336,0,97.04468468302503)" x="302.88009643554693"/><path d="M388.7193440672028 417.66548641092146L408.723077824727 417.66548641092146L408.723077824727 521.8586038398187Q408.723077824727 527.8821371141431 408.6110120893907 531.7764214170785Q408.5269627878885 535.6426892861798 408.16274914804563 540.4334994718054Q407.8265519420368 545.1962932235969 407.0981246623511 548.2220680776761Q406.34168094883125 551.2198264979213 405.16499072780044 554.5537821241753Q403.9883005067696 557.9157541842635 402.1672323075552 559.8769045526483Q400.3461641083408 561.866071354867 397.79666862944066 563.5750738187451Q395.21915671670644 565.3120927164573 391.77313535511615 566.0405199961431Q388.32711399352587 566.7689472758289 383.9845667492454 566.7689472758289L383.9845667492454 566.7689472758289Q372.0775823697667 566.7689472758289 360.5628280639649 561.5578905826923L360.5628280639649 561.5578905826923L362.6080277338519 546.4009998784618Q371.6853522960897 549.8470212400521 377.87698417341863 549.8470212400521L377.87698417341863 549.8470212400521Q384.29274752142015 549.8470212400521 386.50604579431143 545.8126547679464Q388.7193440672028 541.7502718620065 388.7193440672028 534.1858347268083L388.7193440672028 534.1858347268083L388.7193440672028 417.66548641092146ZM454.6139964449296 564.4155668337671L436.20719941594723 564.4155668337671L443.4914722128048 416.76896052823133L465.148175566539 416.76896052823133L507.5090235236491 532.3087336599258L549.0854113334053 416.76896052823133L570.7421146871395 416.76896052823133L578.5306832930103 564.4155668337671L559.0312453444992 564.4155668337671L553.9042379528648 446.13018318633414L513.1123102904626 564.4155668337671L501.70962171999713 564.4155668337671L458.9565436892101 446.9986926351902L454.6139964449296 564.4155668337671Z " fill="#000000" transform="matrix(0.41270458398988336,0,0,0.41270458398988336,0,97.04468468302503)"/><path d="M747.17688226721 419.7656547122067L766.8066457965541 419.7656547122067L766.8066457965541 522.0108795940428Q766.8066457965541 527.9218027856518 766.6966751325241 531.7432833606923Q766.6141971345018 535.5372712697252 766.2567924764044 540.2385171570052Q765.9268804843147 544.9122703782775 765.2120711681199 547.8814783070859Q764.4697691859179 550.8231935698868 763.3150772136036 554.0948208247773Q762.1603852412892 557.3939407456755 760.3733619508026 559.3184273661996Q758.5863386603161 561.270406652731 756.084506053635 562.9474592791876Q753.5551807809464 564.6520045716516 750.1735828620258 565.3668138878463Q746.7919849431051 566.0816232040409 742.530621711945 566.0816232040409L742.530621711945 566.0816232040409Q730.846238658764 566.0816232040409 719.5467529296877 560.9679873266487L719.5467529296877 560.9679873266487L721.5537175482341 546.0944550165993Q730.4613413346592 549.4760529355201 736.5372205223133 549.4760529355201L736.5372205223133 549.4760529355201Q742.8330410380273 549.4760529355201 745.0049616526186 545.5171090304423Q747.17688226721 541.5306724593569 747.17688226721 534.1076526373361L747.17688226721 534.1076526373361L747.17688226721 419.7656547122067ZM839.5797327183664 551.8954075441786L839.5797327183664 551.8954075441786Q853.2985730561013 551.5929882180963 858.6596429275609 549.8609502596248Q864.0207127990203 548.1014196351457 864.0207127990203 542.9877837577535L864.0207127990203 542.9877837577535Q865.0929267733122 529.1589727559888 865.0929267733122 510.98632052504126L865.0929267733122 510.98632052504126Q865.0929267733122 504.9929193354096 864.6255514511851 493.8308969363708Q864.1306834630503 482.66887453733193 864.1306834630503 477.2803119998649L864.1306834630503 477.2803119998649Q864.1306834630503 475.6307520394158 863.608322808908 474.2836114050491Q863.0584694887584 472.9089781046748 861.848792184429 472.0017201264278Q860.6391148800998 471.0944621481808 859.4294375757704 470.4071454979937Q858.2472529374486 469.7198288478066 856.0478396568498 469.3349315237018Q853.8759190422585 468.950034199597 852.3913150778543 468.6751075395222Q850.8792184474427 468.37268821343986 848.1299518466941 468.2902102154174Q845.3806852459456 468.18023955138744 843.868588615534 468.18023955138744Q842.3839846511298 468.18023955138744 839.4972547203439 468.18023955138744Q836.5830321235505 468.18023955138744 835.0984281591464 468.18023955138744Q833.5863315287347 468.18023955138744 830.8370649279861 468.2902102154174Q828.0877983272377 468.37268821343986 826.5757016968261 468.6751075395222Q825.0910977324219 468.950034199597 822.9191771178306 469.3349315237018Q820.7197638372318 469.7198288478066 819.53757919891 470.4071454979937Q818.3279018945806 471.0944621481808 817.1182245902513 472.0017201264278Q815.9085472859219 472.9089781046748 815.3586939657722 474.2836114050491Q814.83633331163 475.6307520394158 814.83633331163 477.2803119998649L814.83633331163 477.2803119998649Q814.83633331163 482.66887453733193 814.3414653234953 493.8308969363708Q813.874090001368 504.9929193354096 813.874090001368 510.98632052504126L813.874090001368 510.98632052504126Q813.874090001368 529.1589727559888 814.94630397566 542.9877837577535L814.94630397566 542.9877837577535Q814.94630397566 548.1014196351457 820.5823005071944 549.9984135896623Q826.2457897047362 551.8954075441786 839.5797327183664 551.8954075441786ZM839.387284056314 565.2293505578089L839.387284056314 565.2293505578089Q828.6651443133949 565.2293505578089 821.5170511514489 564.3495852455693Q814.3414653234953 563.4698199333297 809.1728441140882 560.5281046705288Q804.004222904681 557.5863894077281 801.3099416359476 554.2597768208224Q798.5881677012065 550.9056715679092 797.0485784047875 543.7300857399557Q795.5089891083682 536.5270072459947 795.1790771162784 529.4613920820711Q794.8216724581811 522.3957769181475 794.8216724581811 509.8316285527269L794.8216724581811 509.8316285527269Q794.8216724581811 500.4566294441746 795.0691064522484 494.1883015944681Q795.3165404463158 487.89248107875403 796.1963057585554 481.8715872231149Q797.0485784047875 475.82320070146824 798.3682263731466 472.08419812445027Q799.6603816754985 468.37268821343986 802.134721616172 465.04607562653416Q804.5815688908382 461.691970373621 807.688240149684 459.95993241514947Q810.7674187425223 458.2278944566779 815.5511426278247 456.9082464883187Q820.3348665131269 455.61609118596687 825.9983557106689 455.17620852984714Q831.6618449082108 454.73632587372737 839.4972547203439 454.73632587372737Q847.3051718664695 454.73632587372737 852.9686610640115 455.17620852984714Q858.6321502615534 455.61609118596687 863.4158741468557 456.9082464883187Q868.1995980321581 458.2278944566779 871.2787766249963 459.95993241514947Q874.3854478838422 461.691970373621 876.8322951585083 465.04607562653416Q879.3066350991819 468.37268821343986 880.5987904015336 472.08419812445027Q881.918438369893 475.82320070146824 882.7982036821325 481.8715872231149Q883.6504763283644 487.89248107875403 883.8979103224318 494.1883015944681Q884.1453443164993 500.4566294441746 884.1453443164993 509.8316285527269L884.1453443164993 509.8316285527269Q884.1453443164993 522.3957769181475 883.7879396584019 529.4613920820711Q883.4580276663121 536.5270072459947 881.918438369893 543.7300857399557Q880.3788490734738 550.9056715679092 877.6020898067178 554.2872694868299Q874.8528232059693 557.6963600717579 869.6842019965623 560.5830900025439Q864.515580787155 563.4698199333297 857.367487625209 564.3495852455693Q850.219394463263 565.2293505578089 839.387284056314 565.2293505578089ZM987.6552318346795 534.3825792974109L987.6552318346795 534.3825792974109Q987.6552318346795 543.6751004079407 985.6207745501257 549.6135162655573Q983.5863172655718 555.5519321231741 978.9125640442993 559.0435007061246Q974.2113181570195 562.5075766230677 967.5031076511931 563.8822099234421Q960.7948971453669 565.2293505578089 950.5401327245751 565.2293505578089L950.5401327245751 565.2293505578089Q944.5467315349433 565.2293505578089 940.9176996219553 565.1193798937788Q937.2886677089674 565.0369018957565 932.5599291556799 564.6520045716516Q927.8311906023927 564.2671072475468 925.0269386696291 563.4423272673223Q922.2226867368657 562.6175472870978 918.9785521479824 561.215421320716Q915.7344175590993 559.8132953543343 913.9199016026053 557.641374739743Q912.0778929801038 555.4694541251517 910.4283330196547 552.4727535303359Q908.7787730592056 549.4760529355201 908.118949075026 545.3521530343974Q907.4316324248389 541.2557457992821 907.4316324248389 536.0321392578599L907.4316324248389 536.0321392578599L922.4151353989181 532.1556733508046Q923.2949007111575 543.180232419806 924.4495926834719 546.0944550165993L924.4495926834719 546.0944550165993Q926.1816306419435 550.0533989216772 931.6801638434405 551.0981202299615L931.6801638434405 551.0981202299615Q935.8590490765781 551.9778855422012 949.1929920902082 551.9778855422012L949.1929920902082 551.9778855422012Q957.2208505643938 551.9778855422012 961.1248091374567 551.2630762260064Q965.0287677105196 550.5207742438045 966.4034010108937 548.5138096252581L966.4034010108937 548.5138096252581Q970.2523742519417 545.3246603683898 970.2523742519417 526.7671108133376L970.2523742519417 526.7671108133376Q970.2523742519417 523.962858880574 969.0976822796273 521.9558942620276Q967.9429903073129 519.9764223094887 966.2934303468638 518.9866863332194Q964.6438703864147 517.9694576909424 961.7021551236138 517.2271557087404Q958.760439860813 516.5123463925457 956.3960705841693 516.2649123984784Q954.0317013075256 516.0174784044109 950.1552354004702 515.6325810803062Q946.2787694934149 515.2476837562015 943.9693855487861 514.9727570961265L943.9693855487861 514.9727570961265Q936.9037703848626 514.1754697819094 932.4774511576576 513.4606604657149Q928.023639264445 512.7458511495204 923.48734937321 511.2887398511236Q918.9235668159675 509.8316285527269 916.3667488772714 507.7146932701506Q913.8099309385753 505.5977579875743 911.692995655999 502.21616006865366Q909.5485677074151 498.8070694837255 908.6962950611832 494.07833093043814Q907.8165297489437 489.3495923771507 907.8165297489437 482.7788452013619L907.8165297489437 482.7788452013619Q907.8165297489437 475.82320070146824 909.2736410473403 470.9844914841509Q910.7307523457371 466.1457822668336 913.507511612493 462.95663300996534Q916.3117635452564 459.7674837530971 921.2054580945887 457.9804604626106Q926.099152643921 456.19343717212405 932.1750318315752 455.47862785592946Q938.2509110192293 454.73632587372737 947.0485641416245 454.73632587372737L947.0485641416245 454.73632587372737Q952.5745900091289 454.73632587372737 956.093651258087 454.9012818697723Q959.612712507045 455.03874519980974 963.8190904061902 455.5611058539519Q968.0254683053353 456.11095917410165 970.6372715760464 457.07320248436355Q973.2490748467575 458.03544579462556 975.9158634494835 459.7674837530971Q978.555159386202 461.4995217115686 980.0122706845988 464.0838323162722Q981.4693819829954 466.6406502549683 982.3766399612424 470.29717483396377Q983.311390605497 473.9811920789667 983.311390605497 478.7099306322541L983.311390605497 478.7099306322541L970.3623449159716 482.66887453733193Q969.9774475918667 478.9023792943065 969.6200429337695 476.73045867971524Q969.2901309416796 474.5585380651239 968.1354389693653 472.71652944262246Q966.9807469970509 470.87452082012095 965.7160843607066 470.1047261719114Q964.4514217243624 469.3349315237018 961.3997357975315 468.7575855375446Q958.3755425367082 468.18023955138744 955.2688712778624 468.097761553365Q952.1896926850242 467.98779088933503 946.3887401574449 467.98779088933503L946.3887401574449 467.98779088933503Q934.0170404540767 467.98779088933503 929.6182138928791 470.4621308300087Q925.2193873316816 472.9089781046748 925.2193873316816 478.51748197020174L925.2193873316816 478.51748197020174L925.2193873316816 488.38734906688876Q925.2193873316816 494.7656475806253 929.0408679067219 496.4427002070818Q932.8623484817623 498.1472454995459 949.467918750283 500.2641807821222L949.467918750283 500.2641807821222Q951.2274493747622 500.56660010820457 952.0797220209942 500.649078106227L952.0797220209942 500.649078106227Q958.760439860813 501.41887275443656 962.6643984338758 502.1061894046237Q966.5958496729462 502.7935060548108 970.9396909021287 503.8932126951102Q975.2835321313113 504.9929193354096 977.5654234099326 506.50501596582126Q979.8198220225463 507.98961993022544 982.1017133011676 510.3264965408617Q984.3561119137813 512.6358804854904 985.3733405560582 516.0174784044109Q986.3905691983351 519.3990763233317 987.0229005165073 523.8528882165442Q987.6552318346795 528.3067001097568 987.6552318346795 534.3825792974109ZM1096.1962772322295 502.9859547168632L1096.1962772322295 563.7722392594121L1077.1438596890425 563.7722392594121L1077.1438596890425 499.4119081358902Q1077.1438596890425 495.9203395529396 1077.3088156850872 490.61425501349504Q1077.4462790151247 485.280677808043 1077.4462790151247 483.54863984957143L1077.4462790151247 483.54863984957143Q1077.4462790151247 478.7099306322541 1076.7314696989301 476.09812736154305Q1075.9891677167284 473.486324090832 1073.377364446017 471.47935947228564Q1070.7655611753062 469.4449021877317 1066.0368226220185 468.7575855375446Q1061.3080840687312 468.097761553365 1053.0877769324934 468.097761553365L1053.0877769324934 468.097761553365Q1049.2113110254381 468.097761553365 1045.8022204405097 468.51015154347726Q1042.365637189574 468.950034199597 1039.2589659307287 469.96726284187395Q1036.17978733789 470.9844914841509 1034.2278080513588 472.82650010665236Q1032.3033214308348 474.66850872915387 1032.1108727687824 477.17034133583496L1032.1108727687824 477.17034133583496Q1030.7637321344155 494.57319891857287 1030.7637321344155 508.4844879183602L1030.7637321344155 508.4844879183602L1030.7637321344155 563.7722392594121L1011.6288365932063 563.7722392594121L1011.6288365932063 420.15055203631147L1030.7637321344155 418.6109627398924L1030.7637321344155 465.76088494272875Q1037.7193766343094 454.73632587372737 1059.5760461102595 454.73632587372737L1059.5760461102595 454.73632587372737Q1065.267027973809 454.8462965377573 1069.8583031970588 455.47862785592946Q1074.449578420309 456.11095917410165 1078.0236250012822 456.96323182033365Q1081.5976715822549 457.84299713257315 1084.319445516996 459.3825864289923Q1087.0137267857294 460.9221757254115 1088.9382134062535 462.5717356858605Q1090.8901926927847 464.2212956463096 1092.2373333271516 466.69563558698326Q1093.5844739615186 469.1424828616494 1094.354268609728 471.47935947228564Q1095.1240632579375 473.7887434169144 1095.5639459140575 477.17034133583496Q1096.0038285701771 480.5519392547556 1096.1412919002146 483.4936545175565Q1096.3062478962593 486.43536978035735 1096.3062478962593 490.6967330115175L1096.3062478962593 490.6967330115175Q1096.3062478962593 492.538741634019 1096.2512625642444 496.6351488691342Q1096.1962772322295 500.7590487702569 1096.1962772322295 502.9859547168632L1096.1962772322295 502.9859547168632ZM1139.7996455201005 563.7722392594121L1121.7094712871753 563.7722392594121L1128.8575644491216 418.8858893999672L1150.1368879389147 418.8858893999672L1191.6783062762242 532.2656440148346L1232.4774226313316 418.8858893999672L1253.7292534551175 418.8858893999672L1261.3722146051982 563.7722392594121L1242.2373190639887 563.7722392594121L1237.2061611846188 447.69820337581126L1197.2043321437286 563.7722392594121L1185.9873244126748 563.7722392594121L1144.0335160852528 448.5504760220433L1139.7996455201005 563.7722392594121ZM1367.4939053940893 488.2773784028588L1367.4939053940893 488.2773784028588L1351.8505784358308 490.8891816735699L1349.8161211512765 477.47276066191733Q1349.0463265030671 472.82650010665236 1347.9741125287755 471.5618374703081L1347.9741125287755 471.5618374703081Q1345.472279922094 468.6751075395222 1334.0628235289878 468.2902102154174L1334.0628235289878 468.2902102154174Q1331.3685422602543 468.18023955138744 1328.0694223393562 468.18023955138744L1328.0694223393562 468.18023955138744Q1314.9279279877787 468.18023955138744 1310.8590134186707 469.6373508497841L1310.8590134186707 469.6373508497841Q1306.4052015254583 470.4071454979937 1304.3982369069117 478.4350039721793Q1302.363779622358 486.43536978035735 1302.363779622358 498.0372748355159L1302.363779622358 498.0372748355159L1302.4462576203805 514.7803084340742Q1302.4462576203805 518.2443843510173 1302.4462576203805 524.347756204679L1302.4462576203805 524.347756204679Q1302.4462576203805 532.2656440148346 1302.4462576203805 535.5097786037177Q1302.4462576203805 538.7264205265935 1303.3260229326197 542.8503204277162Q1304.2057882448594 546.9467276628313 1305.305494885159 547.9639563051084Q1306.4052015254583 548.9811849473854 1309.5118727843042 550.3283255817521Q1312.5910513771423 551.7029588821263 1316.1376052921078 551.7854368801487Q1319.656666541066 551.8954075441786 1326.337384380885 551.8954075441786L1326.337384380885 551.8954075441786Q1331.5609909223067 551.8954075441786 1335.3549788313398 551.5105102200739Q1339.1764594063802 551.0981202299615 1341.843248009106 550.5757595758193Q1344.5100366118322 550.0533989216772 1346.1870892382885 548.7337509533179Q1347.891634530753 547.4415956509661 1348.7988925089999 546.3693816766743Q1349.7061504872468 545.3246603683898 1350.2010184753813 543.0427690897686Q1350.6958864635162 540.7608778111473 1350.8333497935537 539.1388105167057Q1350.9708131235911 537.4892505562566 1351.1632617856435 534.1351453033435Q1351.3557104476959 530.8085327164379 1351.658129773778 528.4991487718091L1351.658129773778 528.4991487718091L1367.4939053940893 531.1934300405426Q1366.9165594079323 538.7264205265935 1366.2017500917377 543.2902030838359Q1365.4869407755432 547.826492975071 1363.7823954830792 552.087856206231Q1362.0778501906152 556.3217267713837 1359.5210322519188 558.493647385975Q1356.9642143132228 560.6655680005663 1352.4829097540028 562.4250986250454Q1347.9741125287755 564.1571365835168 1342.0356966711583 564.6794972376591Q1336.0972808135416 565.2293505578089 1327.189657027117 565.2293505578089L1327.189657027117 565.2293505578089Q1320.8113585133801 565.2293505578089 1315.752707968003 564.844453233704Q1310.6665647566183 564.4595559095992 1306.515172189488 563.2498786052699Q1302.363779622358 562.0402013009406 1299.257108363512 560.9130019946338Q1296.177929770674 559.8132953543343 1293.8135604940303 557.0090434215708Q1291.4491912173867 554.2047914888074 1289.8546165889525 552.1703342042535Q1288.2600419605183 550.1358769196997 1287.1878279862262 545.5995870284646Q1286.1156140119347 541.0632971372297 1285.5382680257771 537.8741478803614Q1284.96092203962 534.6849986234931 1284.658502713538 528.1417441137119Q1284.383576053463 521.6259822699378 1284.328590721448 517.0896923787029Q1284.2736053894328 512.553402487468 1284.2736053894328 503.94819802712516L1284.2736053894328 503.94819802712516Q1284.2736053894328 496.2227588790219 1284.5760247155154 490.5592696814801Q1284.8784440415975 484.8957804839382 1285.7307166878295 479.72715927453106Q1286.6104820000692 474.5585380651239 1288.012607966451 471.1219548141883Q1289.4147339328324 467.6853715632527 1291.779103209476 464.6886709684369Q1294.1434724861201 461.691970373621 1297.195158412951 459.95993241514947Q1300.2193516737743 458.2278944566779 1304.7281488990016 456.96323182033365Q1309.2094534582216 455.7260618499968 1314.5980159956885 455.2311938618621Q1319.9590858671481 454.73632587372737 1327.1071790290944 454.73632587372737L1327.1071790290944 454.73632587372737Q1336.2897294755944 454.73632587372737 1342.5305646592933 455.6710765179819Q1348.743907176985 456.5783344962288 1353.582616394302 458.72276244481264Q1358.4213256116195 460.839697727389 1361.2255775443828 464.74365630045185Q1364.0298294771464 468.6751075395222 1365.5694187735653 474.31110407105655Q1367.1090080699846 479.9745932685984 1367.4939053940893 488.2773784028588ZM1412.6368629783797 418.6109627398924L1412.6368629783797 563.7722392594121L1393.6119381012 563.7722392594121L1393.6119381012 420.15055203631147L1412.6368629783797 418.6109627398924ZM1520.7930110518246 493.6109556083109L1520.7930110518246 563.7722392594121L1505.7270300797231 563.7722392594121L1502.6203588208773 548.5962876232804Q1499.733628890091 558.5486327179899 1492.1456530720257 561.8752453048957Q1484.5576772539598 565.2293505578089 1469.9590716039852 565.2293505578089L1469.9590716039852 565.2293505578089Q1460.2816531693506 565.2293505578089 1454.0958033176667 563.3323566032923Q1447.9099534659827 561.4628553147834 1444.253428886987 557.0090434215708Q1440.569411641984 552.5552315283583 1439.1672856756022 546.1219476826068Q1437.7651597092208 539.716156502863 1437.7651597092208 529.5438700800935L1437.7651597092208 529.5438700800935Q1437.7651597092208 525.0075801888586 1439.3597343376546 521.4335336078855Q1440.9543089660888 517.8594870269126 1443.7035755668371 515.3576544202314Q1446.4803348335936 512.8283291475427 1451.0716100568434 510.98632052504126Q1455.6628852800932 509.1718045685473 1460.5840724954332 508.0995905942554Q1465.5052597107729 507.0273766199635 1472.5158895426816 506.3950453017913Q1479.52651937459 505.79020664962667 1486.207237214409 505.5977579875743Q1492.8604623882202 505.40530932552184 1501.7680861746453 505.40530932552184L1501.7680861746453 505.40530932552184L1501.7680861746453 476.67547334770023Q1501.7680861746453 471.75428613236045 1497.1218256193802 469.8847848438515Q1492.4755650641155 467.98779088933503 1480.598733348882 467.98779088933503L1480.598733348882 467.98779088933503Q1472.268455548614 467.98779088933503 1468.1170629814837 468.37268821343986Q1463.9656704143536 468.7575855375446 1461.7937497997623 470.6545794920611Q1459.621829185171 472.52408078057005 1459.264424527074 474.3660894030715Q1458.9345125349837 476.208098025573 1458.8520345369616 481.2392559049427L1458.8520345369616 481.2392559049427Q1458.7420638729313 483.0537718614367 1458.7420638729313 484.1259858357286L1458.7420638729313 484.1259858357286L1443.9510095609048 483.54863984957143Q1443.7585608988525 482.0090505531523 1443.7585608988525 479.0123499583365L1443.7585608988525 479.0123499583365Q1443.7585608988525 472.52408078057005 1445.6555548533688 468.04277622135004Q1447.525056141878 463.5339789961225 1450.5217567366935 460.97716105742643Q1453.5184573315096 458.42034311873033 1458.7420638729313 456.96323182033365Q1463.9656704143536 455.50612052193696 1469.079306291746 455.12122319783214Q1474.2204348351456 454.73632587372737 1481.8359033192187 454.73632587372737L1481.8359033192187 454.73632587372737Q1493.4378083743773 454.73632587372737 1500.6958722003533 456.5233491642139Q1507.9539360263293 458.31037245470037 1512.5727039155868 462.95663300996534Q1517.2189644708515 467.60289356523026 1519.005987761338 474.8059720591913Q1520.7930110518246 482.0090505531523 1520.7930110518246 493.6109556083109L1520.7930110518246 493.6109556083109ZM1501.7680861746453 533.420335987149L1501.7680861746453 533.420335987149L1501.7680861746453 516.8972437166506Q1482.7156686314584 516.8972437166506 1472.4609042106663 518.3543550150473Q1462.233632455882 519.7839736474364 1458.7970492049467 522.36828425214Q1455.360465954011 524.925102190836 1455.360465954011 529.5438700800935L1455.360465954011 529.5438700800935Q1455.360465954011 529.7363187421458 1455.360465954011 530.1487087322582L1455.360465954011 530.1487087322582Q1455.360465954011 544.8297923802551 1457.7798205626696 548.4038389612281Q1460.199175171328 551.9778855422012 1472.5708748746965 551.9778855422012L1472.5708748746965 551.9778855422012Q1483.100565955563 551.9778855422012 1489.6713131313518 549.4760529355201Q1496.242060307141 546.9467276628313 1498.798878245837 543.0427690897686Q1501.3831888505406 539.1388105167057 1501.7680861746453 533.420335987149ZM1570.087361203245 457.7330264685432L1570.087361203245 563.7722392594121L1551.0624363260654 563.7722392594121L1551.0624363260654 457.7330264685432L1570.087361203245 457.7330264685432ZM1551.0624363260654 416.7689541173909L1570.087361203245 416.7689541173909L1570.087361203245 433.4844950499416L1551.0624363260654 433.4844950499416L1551.0624363260654 416.7689541173909ZM1684.5393297924043 504.91044133738717L1684.5393297924043 563.7722392594121L1665.4869122492173 563.7722392594121L1665.4869122492173 499.60435679794256Q1665.4869122492173 493.4185069462585 1665.4319269172024 489.67950436924053Q1665.4044342511947 485.9679944582301 1665.0470295930977 482.2014992152047Q1664.7171176010079 478.4350039721793 1664.3322202769027 476.5380100176628Q1663.947322952798 474.66850872915387 1662.9300943105209 472.7715147746374Q1661.9128656682442 470.87452082012095 1660.8406516939522 470.2146968359413Q1659.7959303856678 469.5273801857542 1657.761473101114 468.89504886758203Q1655.7270158165602 468.2902102154174 1653.692558532006 468.18023955138744Q1651.6581012474526 468.097761553365 1648.2765033285318 468.097761553365L1648.2765033285318 468.097761553365Q1640.9359615045332 468.097761553365 1635.767340295126 468.89504886758203Q1630.598719085719 469.7198288478066 1627.2995991648208 471.17694014620326Q1624.0279719099303 472.6340514446 1622.2409486194438 475.24585471531105Q1620.4539253289572 477.8576579860221 1619.76660867877 480.88185124684543Q1619.1067846945903 483.93353717367626 1619.1067846945903 488.38734906688876L1619.1067846945903 488.38734906688876Q1619.1067846945903 490.8891816735699 1619.3817113546652 497.1300168572689Q1619.6841306807478 503.370852040968 1619.6841306807478 507.21982528201585L1619.6841306807478 507.21982528201585L1619.6841306807478 563.7722392594121L1600.6317131375604 563.7722392594121L1600.6317131375604 457.7330264685432L1618.0345707202982 457.7330264685432L1619.8765793428001 469.6373508497841Q1622.3784119494808 461.691970373621 1630.9836164098238 458.2278944566779Q1639.5888208701663 454.73632587372737 1651.4656525854002 454.73632587372737L1651.4656525854002 454.73632587372737Q1657.0741564509267 454.73632587372737 1661.4179976801092 455.4236425239145Q1665.7893315752995 456.11095917410165 1669.1709294942202 457.70553380253574Q1672.5525274131405 459.30010843096983 1674.9993746878067 461.30707304951625Q1677.4737146284806 463.3415303340701 1679.1507672549374 466.69563558698326Q1680.8553125474014 470.02224817388895 1681.927526521693 473.486324090832Q1682.9722478299777 476.9778926737826 1683.5495938161348 482.2014992152047Q1684.1544324682995 487.4251057566268 1684.346881130352 492.59372696603396Q1684.5393297924043 497.7623481754411 1684.5393297924043 504.91044133738717L1684.5393297924043 504.91044133738717ZM1736.912858536663 552.4727535303359L1736.912858536663 552.4727535303359Q1736.912858536663 559.3184273661996 1733.0088999636 563.0574299432176Q1729.0774487245294 566.7689398542279 1723.5789155230327 566.7689398542279Q1718.0803823215356 566.7689398542279 1713.9014970883982 562.9474592791876Q1709.7501045212675 559.1259787041472 1709.7501045212675 552.4727535303359L1709.7501045212675 552.4727535303359Q1709.7501045212675 545.7095576924946 1713.6815557603381 541.9705551154766Q1717.5855143334006 538.2590452044662 1723.0015695368756 538.2590452044662L1723.0015695368756 538.2590452044662Q1728.6100734024021 538.2590452044662 1732.7614659695328 542.0805257795066Q1736.912858536663 545.902006354547 1736.912858536663 552.4727535303359ZM1842.5671740034268 488.2773784028588L1842.5671740034268 488.2773784028588L1826.8963543791601 490.8891816735699L1824.8618970946068 477.47276066191733Q1824.092102446397 472.82650010665236 1823.0473811381125 471.5618374703081L1823.0473811381125 471.5618374703081Q1820.5180558654238 468.6751075395222 1809.108599472318 468.2902102154174L1809.108599472318 468.2902102154174Q1806.4143182035841 468.18023955138744 1803.115198282686 468.18023955138744L1803.115198282686 468.18023955138744Q1789.9737039311085 468.18023955138744 1785.932282028008 469.6373508497841L1785.932282028008 469.6373508497841Q1781.4784701347953 470.4071454979937 1779.4440128502415 478.4350039721793Q1777.4095555656877 486.43536978035735 1777.4095555656877 498.0372748355159L1777.4095555656877 498.0372748355159L1777.519526229718 514.7803084340742Q1777.519526229718 518.2443843510173 1777.519526229718 524.347756204679L1777.519526229718 524.347756204679Q1777.519526229718 532.2656440148346 1777.519526229718 535.5097786037177Q1777.519526229718 538.7264205265935 1778.37179887595 542.8503204277162Q1779.2515641881891 546.9467276628313 1780.3512708284889 547.9639563051084Q1781.4784701347953 548.9811849473854 1784.557648727634 550.3283255817521Q1787.6643199864798 551.7029588821263 1791.1833812354375 551.7854368801487Q1794.7024424843958 551.8954075441786 1801.3831603242147 551.8954075441786L1801.3831603242147 551.8954075441786Q1806.6067668656365 551.8954075441786 1810.4282474406773 551.5105102200739Q1814.2497280157172 551.0981202299615 1816.8890239524362 550.5757595758193Q1819.555812555162 550.0533989216772 1821.2328651816188 548.7337509533179Q1822.9374104740828 547.4415956509661 1823.8446684523296 546.3693816766743Q1824.7794190965838 545.3246603683898 1825.2467944187115 543.0427690897686Q1825.741662406846 540.7608778111473 1825.8791257368835 539.1388105167057Q1826.016589066921 537.4892505562566 1826.236530394981 534.1351453033435Q1826.4289790570333 530.8085327164379 1826.7039057171082 528.4991487718091L1826.7039057171082 528.4991487718091L1842.5671740034268 531.1934300405426Q1841.9898280172692 538.7264205265935 1841.2475260350675 543.2902030838359Q1840.532716718873 547.826492975071 1838.828171426409 552.087856206231Q1837.1511187999522 556.3217267713837 1834.5943008612562 558.493647385975Q1832.0099902565526 560.6655680005663 1827.5286856973325 562.4250986250454Q1823.0473811381125 564.1571365835168 1817.0814726144881 564.6794972376591Q1811.1430567568718 565.2293505578089 1802.262925636454 565.2293505578089L1802.262925636454 565.2293505578089Q1795.8846271227176 565.2293505578089 1790.7984839113328 564.844453233704Q1785.712340699948 564.4595559095992 1781.5609481328179 563.2498786052699Q1777.4095555656877 562.0402013009406 1774.3303769728495 560.9130019946338Q1771.2237057140037 559.8132953543343 1768.85933643736 557.0090434215708Q1766.4949671607164 554.2047914888074 1764.9003925322822 552.1703342042535Q1763.305817903848 550.1358769196997 1762.233603929556 545.5995870284646Q1761.1888826212717 541.0632971372297 1760.5840439691074 537.8741478803614Q1760.0066979829498 534.6849986234931 1759.7317713228754 528.1417441137119Q1759.4293519967928 521.6259822699378 1759.3743666647779 517.0896923787029Q1759.3468739987702 512.553402487468 1759.3468739987702 503.94819802712516L1759.3468739987702 503.94819802712516Q1759.3468739987702 496.2227588790219 1759.6218006588451 490.5592696814801Q1759.9242199849273 484.8957804839382 1760.7764926311597 479.72715927453106Q1761.656257943399 474.5585380651239 1763.0583839097808 471.1219548141883Q1764.4605098761626 467.6853715632527 1766.8248791528063 464.6886709684369Q1769.18924842945 461.691970373621 1772.2409343562808 459.95993241514947Q1775.2926202831113 458.2278944566779 1779.7739248423313 456.96323182033365Q1784.282722067559 455.7260618499968 1789.6437919390187 455.2311938618621Q1795.004861810478 454.73632587372737 1802.1529549724241 454.73632587372737L1802.1529549724241 454.73632587372737Q1811.3355054189237 454.73632587372737 1817.576340602623 455.6710765179819Q1823.817175786322 456.5783344962288 1828.6283923376318 458.72276244481264Q1833.4671015549493 460.839697727389 1836.2713534877125 464.74365630045185Q1839.0756054204762 468.6751075395222 1840.6151947168955 474.31110407105655Q1842.182276679322 479.9745932685984 1842.5671740034268 488.2773784028588ZM1908.0821970992629 551.8954075441786L1908.0821970992629 551.8954075441786Q1921.8010374369983 551.5929882180963 1927.1895999744647 549.8609502596248Q1932.5506698459244 548.1014196351457 1932.5506698459244 542.9877837577535L1932.5506698459244 542.9877837577535Q1933.5953911542088 529.1589727559888 1933.5953911542088 510.98632052504126L1933.5953911542088 510.98632052504126Q1933.5953911542088 504.9929193354096 1933.128015832082 493.8308969363708Q1932.633147843947 482.66887453733193 1932.633147843947 477.2803119998649L1932.633147843947 477.2803119998649Q1932.633147843947 475.6307520394158 1932.1107871898048 474.2836114050491Q1931.5884265356626 472.9089781046748 1930.3787492313331 472.0017201264278Q1929.169071927004 471.0944621481808 1927.9593946226746 470.4071454979937Q1926.7497173183451 469.7198288478066 1924.5777967037538 469.3349315237018Q1922.4058760891626 468.950034199597 1920.893779458751 468.6751075395222Q1919.409175494347 468.37268821343986 1916.632416227591 468.2902102154174Q1913.8831496268422 468.18023955138744 1912.3985456624382 468.18023955138744Q1910.8864490320266 468.18023955138744 1907.9997191012403 468.18023955138744Q1905.0854965044473 468.18023955138744 1903.6008925400429 468.18023955138744Q1902.0887959096312 468.18023955138744 1899.339529308883 468.2902102154174Q1896.5902627081346 468.37268821343986 1895.078166077723 468.6751075395222Q1893.5935621133185 468.950034199597 1891.4216414987272 469.3349315237018Q1889.249720884136 469.7198288478066 1888.0400435798065 470.4071454979937Q1886.8303662754774 471.0944621481808 1885.620688971148 472.0017201264278Q1884.4110116668185 472.9089781046748 1883.8886510126763 474.2836114050491Q1883.338797692527 475.6307520394158 1883.338797692527 477.2803119998649L1883.338797692527 477.2803119998649Q1883.338797692527 482.66887453733193 1882.8714223703996 493.8308969363708Q1882.3765543822647 504.9929193354096 1882.3765543822647 510.98632052504126L1882.3765543822647 510.98632052504126Q1882.3765543822647 529.1589727559888 1883.4487683565567 542.9877837577535L1883.4487683565567 542.9877837577535Q1883.4487683565567 548.1014196351457 1889.0847648880908 549.9984135896623Q1894.7482540856327 551.8954075441786 1908.0821970992629 551.8954075441786ZM1907.8897484372105 565.2293505578089L1907.8897484372105 565.2293505578089Q1897.1676086942916 565.2293505578089 1890.0195155323454 564.3495852455693Q1882.8714223703996 563.4698199333297 1877.7028011609923 560.5281046705288Q1872.5341799515854 557.5863894077281 1869.8124060168439 554.2597768208224Q1867.1181247481109 550.9056715679092 1865.5510427856839 543.7300857399557Q1864.0114534892646 536.5270072459947 1863.6815414971752 529.4613920820711Q1863.3516295050854 522.3957769181475 1863.3516295050854 509.8316285527269L1863.3516295050854 509.8316285527269Q1863.3516295050854 500.4566294441746 1863.5715708331454 494.1883015944681Q1863.8190048272127 487.89248107875403 1864.6987701394519 481.8715872231149Q1865.5510427856839 475.82320070146824 1866.8706907540436 472.08419812445027Q1868.1628460563952 468.37268821343986 1870.6371859970686 465.04607562653416Q1873.111525937742 461.691970373621 1876.1907045305807 459.95993241514947Q1879.2973757894265 458.2278944566779 1884.081099674729 456.9082464883187Q1888.8648235600313 455.61609118596687 1894.5008200915654 455.17620852984714Q1900.1643092891077 454.73632587372737 1907.9997191012403 454.73632587372737Q1915.8351289133739 454.73632587372737 1921.471125444908 455.17620852984714Q1927.1346146424503 455.61609118596687 1931.9183385277524 456.9082464883187Q1936.702062413055 458.2278944566779 1939.7812410058928 459.95993241514947Q1942.8879122647386 461.691970373621 1945.3622522054125 465.04607562653416Q1947.8090994800787 468.37268821343986 1949.128747448438 472.08419812445027Q1950.4209027507895 475.82320070146824 1951.3006680630292 481.8715872231149Q1952.1529407092612 487.89248107875403 1952.4003747033285 494.1883015944681Q1952.6478086973957 500.4566294441746 1952.6478086973957 509.8316285527269L1952.6478086973957 509.8316285527269Q1952.6478086973957 522.3957769181475 1952.3178967053059 529.4613920820711Q1951.9604920472088 536.5270072459947 1950.4209027507895 543.7300857399557Q1948.8813134543702 550.9056715679092 1946.132046853622 554.2872694868299Q1943.3552875868659 557.6963600717579 1938.1866663774586 560.5830900025439Q1933.0180451680517 563.4698199333297 1925.8699520061054 564.3495852455693Q1918.7218588441597 565.2293505578089 1907.8897484372105 565.2293505578089ZM2120.160622681001 498.72459148570306L2120.160622681001 563.7722392594121L2101.108205137814 563.7722392594121L2101.108205137814 499.4119081358902Q2101.108205137814 488.4698270649112 2101.410624463896 482.7788452013619L2101.410624463896 482.7788452013619Q2101.410624463896 479.2872766184113 2100.9157564757616 477.11535600382Q2100.4208884876266 474.9434353892287 2098.798821193185 472.6340514446Q2097.149261232736 470.29717483396377 2093.3827659897106 469.1974681936644Q2089.616270746685 468.097761553365 2083.705347555076 468.097761553365L2083.705347555076 468.097761553365Q2077.244571043317 468.097761553365 2072.8457444821197 468.89504886758203Q2068.446917920922 469.7198288478066 2065.780129318196 471.1219548141883Q2063.11334071547 472.52408078057005 2061.6837220830807 475.1358840512811Q2060.226610784684 477.74768732199215 2059.7867281285644 480.60692458677056Q2059.3468454724443 483.466161851549 2059.3468454724443 488.002451742784L2059.3468454724443 488.002451742784Q2059.3468454724443 490.1193870253603 2059.484308802482 495.5904275608498Q2059.649264798527 501.0339754303318 2059.649264798527 504.4155733492524L2059.649264798527 504.4155733492524L2059.649264798527 563.7722392594121L2040.5968472553395 563.7722392594121L2040.5968472553395 495.9203395529396Q2040.5968472553395 495.42547156480487 2040.5968472553395 494.57319891857287L2040.5968472553395 494.57319891857287Q2040.5968472553395 488.002451742784 2040.5143692573174 485.1432144780056Q2040.4043985932876 482.28397721322716 2039.7720672751152 478.4624966381868Q2039.1397359569432 474.66850872915387 2037.9300586526138 473.29387542877964Q2036.747874014292 471.94673479441286 2034.2185487416032 470.4071454979937Q2031.716716134922 468.8675562015746 2028.1426695539494 468.48265887746976Q2024.5686229729763 468.097761553365 2019.0425971054715 468.097761553365L2019.0425971054715 468.097761553365Q2015.5785211885286 468.097761553365 2012.4168645976679 468.51015154347726Q2009.2827006728148 468.950034199597 2006.3959707420286 469.912277509859Q2003.481748145235 470.87452082012095 2001.6397395227336 472.71652944262246Q1999.8252235662399 474.5585380651239 1999.7152529022096 477.06037067180506L1999.7152529022096 477.06037067180506Q1998.4505902658657 489.9269383633079 1998.4505902658657 505.29533866149194L1998.4505902658657 505.29533866149194L1998.4505902658657 563.7722392594121L1979.425665388686 563.7722392594121L1979.425665388686 457.7330264685432L1996.8285229714238 457.7330264685432L1998.643038927918 469.3349315237018Q2002.5195048349733 461.4995217115686 2009.7775686609493 458.2278944566779Q2017.0081398209177 454.9287745357798 2028.1426695539494 454.9287745357798L2028.1426695539494 454.9287745357798Q2039.0572579589207 454.9287745357798 2045.5180344706796 458.42034311873033Q2052.006303648446 461.91191170168094 2055.003004243262 469.82979951183654L2055.003004243262 469.82979951183654Q2062.728443391365 454.73632587372737 2085.5473561775775 454.73632587372737L2085.5473561775775 454.73632587372737Q2092.997868665606 454.73632587372737 2098.2489678730353 455.5611058539519Q2103.5275597464724 456.38588583417646 2107.4865036515503 458.61279178078274Q2111.445447556628 460.839697727389 2113.8098168332717 463.9188763202273Q2116.1741861099154 467.0255475790731 2117.631297408312 472.1941687884802Q2119.088408706709 477.3627899978874 2119.610769360851 483.54863984957143Q2120.160622681001 489.73448970125554 2120.160622681001 498.72459148570306L2120.160622681001 498.72459148570306Z " fill="#ffffff" transform="matrix(0.41270458398988336,0,0,0.41270458398988336,0,97.04468468302503)"/></g></svg>