<svg xmlns="http://www.w3.org/2000/svg" version="1.1" xmlns:xlink="http://www.w3.org/1999/xlink" xmlns:svgjs="http://svgjs.dev/svgjs" width="100%" height="100%" viewBox="0 0 1000 600"><rect width="1000" height="600" x="0" y="0" fill="#818cf8"/><g><rect width="333.3333333333333" height="333.3333333333333" rx="13.333333333333334" ry="13.333333333333334" y="350.14550994596226" fill="#ffffff" transform="matrix(0.3811867934294682,0,0,0.3811867934294681,0,102.99804085226937)" x="327.9233093261719"/><path d="M351.4438313653739 558.5392460987316L351.4438313653739 558.5392460987316L351.4438313653739 535.2904539710137L369.7107394657238 535.2904539710137L369.7107394657238 560.5018064731494Q369.7107394657238 575.2964923726063 384.4752321286512 575.2964923726063L384.4752321286512 575.2964923726063L418.41242998781365 575.2964923726063Q433.17692265074106 575.2964923726063 433.17692265074106 560.5018064731494L433.17692265074106 560.5018064731494L433.17692265074106 458.32789405730813L384.0525268172382 458.32789405730813L384.0525268172382 441.81219367566945L451.44383075109096 441.81219367566945L451.44383075109096 558.5392460987316Q451.44383075109096 591.812192754245 418.1708840955776 591.812192754245L418.1708840955776 591.812192754245L384.71677802088726 591.812192754245Q351.4438313653739 591.812192754245 351.4438313653739 558.5392460987316ZM507.54286422290926 591.812192754245L489.27595612255936 591.812192754245L489.27595612255936 441.81219367566945L513.400352109633 441.81219367566945L563.6117044581981 548.3339321517594L613.6117041510565 441.81219367566945L637.7361001381303 441.81219367566945L637.7361001381303 591.812192754245L619.4993852743098 591.812192754245L619.4993852743098 469.1974592079295L572.0960039229886 570.0730624530022L554.9160523377009 570.0730624530022L507.54286422290926 469.1974592079295L507.54286422290926 591.812192754245Z " fill="#000000" transform="matrix(0.3811867934294682,0,0,0.3811867934294681,0,102.99804085226937)"/><path d="M744.5899648232457 560.7874210833559L744.5899648232457 560.7874210833559L744.5899648232457 539.109492658763L761.6226228711403 539.109492658763L761.6226228711403 562.6173760802371Q761.6226228711403 576.4124214413418 775.3895150784467 576.4124214413418L775.3895150784467 576.4124214413418L807.0336599475929 576.4124214413418Q820.8005521548994 576.4124214413418 820.8005521548994 562.6173760802371L820.8005521548994 562.6173760802371L820.8005521548994 467.34710362722063L774.9953709252723 467.34710362722063L774.9953709252723 451.9473284996202L837.8332102027939 451.9473284996202L837.8332102027939 560.7874210833559Q837.8332102027939 591.8121965689422 806.8084347172075 591.8121965689422L806.8084347172075 591.8121965689422L775.6147403088321 591.8121965689422Q744.5899648232457 591.8121965689422 744.5899648232457 560.7874210833559ZM869.4492019181419 561.4067904669157L869.4492019181419 561.4067904669157L869.4492019181419 516.8121948506101Q869.4492019181419 486.4067887485836 899.8546080201684 486.4067887485836L899.8546080201684 486.4067887485836L928.2329870487265 486.4067887485836Q958.638393150753 486.4067887485836 958.638393150753 516.8121948506101L958.638393150753 516.8121948506101L958.638393150753 561.4067904669157Q958.638393150753 591.8121965689422 928.2329870487265 591.8121965689422L928.2329870487265 591.8121965689422L899.8546080201684 591.8121965689422Q869.4492019181419 591.8121965689422 869.4492019181419 561.4067904669157ZM885.6654185058894 514.7851677771416L885.6654185058894 563.4338175403841Q885.6654185058894 577.6230070546633 899.8546080201684 577.6230070546633L899.8546080201684 577.6230070546633L928.2329870487265 577.6230070546633Q942.4221765630055 577.6230070546633 942.4221765630055 563.4338175403841L942.4221765630055 563.4338175403841L942.4221765630055 514.7851677771416Q942.4221765630055 500.5959782628627 928.2329870487265 500.5959782628627L928.2329870487265 500.5959782628627L899.8546080201684 500.5959782628627Q885.6654185058894 500.5959782628627 885.6654185058894 514.7851677771416L885.6654185058894 514.7851677771416ZM993.520150706689 591.8121965689422L985.4120424128153 585.7311153485371L985.4120424128153 577.6230070546633L1032.2307371791765 577.6230070546633Q1046.2228546168683 577.6230070546633 1046.2228546168683 563.4338175403841L1046.2228546168683 563.4338175403841Q1046.2228546168683 549.0475559495179 1035.074205712792 547.2176009526368L1035.074205712792 547.2176009526368L1010.946952907758 543.1635468056998Q985.4120424128153 538.9124205821757 985.4120424128153 515.4045371607015L985.4120424128153 515.4045371607015Q985.4120424128153 486.4067887485836 1015.8174485148418 486.4067887485836L1015.8174485148418 486.4067887485836L1049.6575393802455 486.4067887485836L1057.7656476741192 492.4878699689889L1057.7656476741192 500.5959782628627L1015.5922232844564 500.5959782628627Q1001.4030337701774 500.5959782628627 1001.4030337701774 514.7851677771416L1001.4030337701774 514.7851677771416Q1001.4030337701774 527.5666996015121 1013.3681241344009 529.5937266749806L1013.3681241344009 529.5937266749806L1037.495376939435 533.6477808219174Q1062.6361432812032 537.7018349688543 1062.6361432812032 562.6173760802371L1062.6361432812032 562.6173760802371Q1062.6361432812032 591.8121965689422 1031.808439872204 591.8121965689422L1031.808439872204 591.8121965689422L993.520150706689 591.8121965689422ZM1107.0336668209216 591.8121965689422L1090.817450233174 591.8121965689422L1090.817450233174 441.81219313227797L1107.0336668209216 441.81219313227797L1107.0336668209216 486.4067887485836L1147.5742082902902 486.4067887485836Q1177.9796143923168 486.4067887485836 1177.9796143923168 516.8121948506101L1177.9796143923168 516.8121948506101L1177.9796143923168 591.8121965689422L1161.7633978045692 591.8121965689422L1161.7633978045692 514.7851677771416Q1161.7633978045692 500.5959782628627 1147.5742082902902 500.5959782628627L1147.5742082902902 500.5959782628627L1107.0336668209216 500.5959782628627L1107.0336668209216 591.8121965689422ZM1228.6552912290276 591.8121965689422L1211.622633181133 591.8121965689422L1211.622633181133 451.9473284996202L1234.1170030658732 451.9473284996202L1280.9356978322344 551.2716550995735L1327.5573205220082 451.9473284996202L1350.0516904067483 451.9473284996202L1350.0516904067483 591.8121965689422L1333.047185512652 591.8121965689422L1333.047185512652 477.48223899456286L1288.8467340495208 571.5419258342579L1272.8275895383606 571.5419258342579L1228.6552912290276 477.48223899456286L1228.6552912290276 591.8121965689422ZM1382.906420889216 561.4067904669157L1382.906420889216 561.4067904669157L1382.906420889216 516.8121948506101Q1382.906420889216 486.4067887485836 1413.3118269912425 486.4067887485836L1413.3118269912425 486.4067887485836L1453.0359270004642 486.4067887485836L1461.1440352943378 492.4878699689889L1461.1440352943378 500.5959782628627L1413.3118269912425 500.5959782628627Q1399.1226374769635 500.5959782628627 1399.1226374769635 514.7851677771416L1399.1226374769635 514.7851677771416L1399.1226374769635 563.4338175403841Q1399.1226374769635 577.6230070546633 1413.3118269912425 577.6230070546633L1413.3118269912425 577.6230070546633L1461.1440352943378 577.6230070546633L1461.1440352943378 585.7311153485371L1453.0359270004642 591.8121965689422L1413.3118269912425 591.8121965689422Q1382.906420889216 591.8121965689422 1382.906420889216 561.4067904669157ZM1573.8411099484233 591.8121965689422L1488.7059728627491 591.8121965689422L1488.7059728627491 451.9473284996202L1505.7386309106437 451.9473284996202L1505.7386309106437 576.4124214413418L1573.8411099484233 576.4124214413418L1573.8411099484233 591.8121965689422ZM1673.1654365483769 591.8121965689422L1619.871516408436 591.8121965689422Q1589.240885076024 591.8121965689422 1589.240885076024 561.2097183903286Q1589.240885076024 530.6072402117147 1619.871516408436 530.6072402117147L1619.871516408436 530.6072402117147L1656.9492199606293 530.6072402117147L1656.9492199606293 514.7851677771416Q1656.9492199606293 500.5959782628627 1642.7600304463504 500.5959782628627L1642.7600304463504 500.5959782628627L1599.376020443366 500.5959782628627L1599.376020443366 492.4878699689889L1607.4841287372396 486.4067887485836L1642.7600304463504 486.4067887485836Q1673.1654365483769 486.4067887485836 1673.1654365483769 516.8121948506101L1673.1654365483769 516.8121948506101L1673.1654365483769 591.8121965689422ZM1605.4571016637715 557.9721057035388L1605.4571016637715 563.4338175403841Q1605.4571016637715 577.6230070546633 1619.6462911780504 577.6230070546633L1619.6462911780504 577.6230070546633L1656.9492199606293 577.6230070546633L1656.9492199606293 543.7829161892596L1619.6462911780504 543.7829161892596Q1605.4571016637715 543.7829161892596 1605.4571016637715 557.9721057035388L1605.4571016637715 557.9721057035388ZM1721.8140863116191 466.75588739745905L1703.9931399573761 466.75588739745905L1703.9931399573761 447.69620227609613L1721.8140863116191 447.69620227609613L1721.8140863116191 466.75588739745905ZM1720.9976448514722 591.8121965689422L1704.7814282637246 591.8121965689422L1704.7814282637246 486.4067887485836L1720.9976448514722 486.4067887485836L1720.9976448514722 591.8121965689422ZM1769.6462946147149 591.8121965689422L1753.4300780269673 591.8121965689422L1753.4300780269673 486.4067887485836L1810.1868360840836 486.4067887485836Q1840.59224218611 486.4067887485836 1840.59224218611 516.8121948506101L1840.59224218611 516.8121948506101L1840.59224218611 591.8121965689422L1824.3760255983625 591.8121965689422L1824.3760255983625 514.7851677771416Q1824.3760255983625 500.5959782628627 1810.1868360840836 500.5959782628627L1810.1868360840836 500.5959782628627L1769.6462946147149 500.5959782628627L1769.6462946147149 591.8121965689422ZM1892.281432559555 591.8121965689422L1872.6305312084305 591.8121965689422L1872.6305312084305 569.909042913964L1892.281432559555 569.909042913964L1892.281432559555 591.8121965689422ZM1923.3062080451414 561.4067904669157L1923.3062080451414 561.4067904669157L1923.3062080451414 516.8121948506101Q1923.3062080451414 486.4067887485836 1953.711614147168 486.4067887485836L1953.711614147168 486.4067887485836L1993.4357141563896 486.4067887485836L2001.5438224502636 492.4878699689889L2001.5438224502636 500.5959782628627L1953.711614147168 500.5959782628627Q1939.522424632889 500.5959782628627 1939.522424632889 514.7851677771416L1939.522424632889 514.7851677771416L1939.522424632889 563.4338175403841Q1939.522424632889 577.6230070546633 1953.711614147168 577.6230070546633L1953.711614147168 577.6230070546633L2001.5438224502636 577.6230070546633L2001.5438224502636 585.7311153485371L1993.4357141563896 591.8121965689422L1953.711614147168 591.8121965689422Q1923.3062080451414 591.8121965689422 1923.3062080451414 561.4067904669157ZM2025.4740031787105 561.4067904669157L2025.4740031787105 561.4067904669157L2025.4740031787105 516.8121948506101Q2025.4740031787105 486.4067887485836 2055.8794092807366 486.4067887485836L2055.8794092807366 486.4067887485836L2084.257788309295 486.4067887485836Q2114.6631944113215 486.4067887485836 2114.6631944113215 516.8121948506101L2114.6631944113215 516.8121948506101L2114.6631944113215 561.4067904669157Q2114.6631944113215 591.8121965689422 2084.257788309295 591.8121965689422L2084.257788309295 591.8121965689422L2055.8794092807366 591.8121965689422Q2025.4740031787105 591.8121965689422 2025.4740031787105 561.4067904669157ZM2041.6902197664576 514.7851677771416L2041.6902197664576 563.4338175403841Q2041.6902197664576 577.6230070546633 2055.8794092807366 577.6230070546633L2055.8794092807366 577.6230070546633L2084.257788309295 577.6230070546633Q2098.446977823574 577.6230070546633 2098.446977823574 563.4338175403841L2098.446977823574 563.4338175403841L2098.446977823574 514.7851677771416Q2098.446977823574 500.5959782628627 2084.257788309295 500.5959782628627L2084.257788309295 500.5959782628627L2055.8794092807366 500.5959782628627Q2041.6902197664576 500.5959782628627 2041.6902197664576 514.7851677771416L2041.6902197664576 514.7851677771416ZM2161.67896125427 591.8121965689422L2145.462744666522 591.8121965689422L2145.462744666522 486.4067887485836L2265.05734200116 486.4067887485836Q2295.4627481031866 486.4067887485836 2295.4627481031866 516.8121948506101L2295.4627481031866 516.8121948506101L2295.4627481031866 591.8121965689422L2279.246531515439 591.8121965689422L2279.246531515439 514.7851677771416Q2279.246531515439 500.5959782628627 2265.05734200116 500.5959782628627L2265.05734200116 500.5959782628627L2228.570854678728 500.5959782628627L2228.570854678728 591.8121965689422L2212.3546380909806 591.8121965689422L2212.3546380909806 500.5959782628627L2161.67896125427 500.5959782628627L2161.67896125427 591.8121965689422Z " fill="#ffffff" transform="matrix(0.3811867934294682,0,0,0.3811867934294681,0,102.99804085226937)"/></g></svg>